<svg xmlns="http://www.w3.org/2000/svg" viewBox="0 0 180 230"><defs><linearGradient id="b" x1="0" y1="0" x2="1" y2="1"><stop stop-color="#fffdf7"/><stop offset="1" stop-color="#eadfd5"/></linearGradient></defs><ellipse cx="90" cy="198" rx="58" ry="17" fill="#8b8c80" opacity=".12"/><path d="M55 66C27 31 28 4 43 3c17-2 25 34 26 64M111 65C126 20 145-2 158 9c14 13-9 46-31 68" fill="url(#b)" stroke="#e3d0c8" stroke-width="4"/><path d="M58 39c-10-19-12-29-9-30 7-3 14 20 15 32M125 48c10-24 21-37 25-33 7 6-10 31-20 38" fill="none" stroke="#efb6b3" stroke-width="7" stroke-linecap="round"/><ellipse cx="91" cy="143" rx="56" ry="60" fill="url(#b)"/><circle cx="91" cy="92" r="54" fill="url(#b)"/><circle cx="70" cy="91" r="6" fill="#26313a"/><circle cx="111" cy="91" r="6" fill="#26313a"/><path d="M86 103q5 7 10 0q-5-5-10 0M80 111q11 12 22 0" fill="none" stroke="#594e49" stroke-width="3" stroke-linecap="round"/><circle cx="59" cy="106" r="9" fill="#f6b1ad" opacity=".65"/><circle cx="122" cy="106" r="9" fill="#f6b1ad" opacity=".65"/><path d="M57 148q34-18 68 0v51H57z" fill="#79a984"/><path d="M91 154v44M66 160l25 10 25-10" stroke="#fff7df" stroke-width="3" fill="none"/><path d="M86 178l5 5 5-5c8 0 8-11 0-11-3 0-5 2-5 4-1-2-3-4-6-4-8 0-8 11 1 11" fill="#ffd781"/><ellipse cx="55" cy="191" rx="17" ry="21" fill="url(#b)"/><ellipse cx="127" cy="191" rx="17" ry="21" fill="url(#b)"/></svg>
