<svg xmlns="http://www.w3.org/2000/svg" viewBox="0 0 210 190"><defs><linearGradient id="r" x1="0" y1="0" x2="1" y2="1"><stop stop-color="#b9aaa0"/><stop offset="1" stop-color="#7f7775"/></linearGradient></defs><ellipse cx="102" cy="174" rx="70" ry="12" fill="#8b8c80" opacity=".12"/><path d="M47 61L41 25l35 23M151 61l16-36-39 23" fill="#6f6666"/><ellipse cx="103" cy="119" rx="57" ry="57" fill="url(#r)"/><circle cx="102" cy="72" r="52" fill="url(#r)"/><path d="M54 66q47-34 96 0-17 47-48 21-31 26-48-21" fill="#4b4a4d"/><ellipse cx="74" cy="72" rx="17" ry="14" fill="#f2e7dc"/><ellipse cx="130" cy="72" rx="17" ry="14" fill="#f2e7dc"/><circle cx="76" cy="72" r="6" fill="#26313a"/><circle cx="128" cy="72" r="6" fill="#26313a"/><ellipse cx="102" cy="93" rx="22" ry="17" fill="#ead9c8"/><path d="M97 91q5 7 10 0q-5-4-10 0M94 101q8 8 16 0" fill="none" stroke="#4c3d3a" stroke-width="3"/><rect x="99" y="111" width="68" height="57" rx="7" fill="#5fa6a1" transform="rotate(-4 132 139)"/><rect x="109" y="119" width="48" height="16" rx="3" fill="#d8ebe5"/><g fill="#e8f4ee"><circle cx="115" cy="144" r="4"/><circle cx="128" cy="143" r="4"/><circle cx="141" cy="142" r="4"/><circle cx="154" cy="141" r="4"/><circle cx="116" cy="157" r="4"/><circle cx="129" cy="156" r="4"/><circle cx="142" cy="155" r="4"/><circle cx="155" cy="154" r="4"/></g></svg>
